# xmcd
# 
# Track frame offsets:
#     150
#     13592
#     27132
#     39745
#     56988
#     70756
#     83878
#     99239
#     112089
#     127826
#     141846
#     156064
# 
# Disc length: 2262
# 
# Revision: 4
# Processed by: cddbd v1.5.2PL0 Copyright (c) Steve Scherf et al.
# Submitted via: fre:ac v1.0.31
# 
DISCID=9a08d40c
DTITLE=Thousand Foot Krutch - Phenomenon
DYEAR=2003
DGENRE=Hard Rock
TTITLE0=Phenomenon
TTITLE1=Step To Me
TTITLE2=Last Words
TTITLE3=This Is A Call
TTITLE4=Rawkfist
TTITLE5=Faith, Love and Happiness
TTITLE6=I Climb
TTITLE7=Quicken
TTITLE8=New Design
TTITLE9=Bounce
TTITLE10=Ordinary
TTITLE11=Break the Silence
EXTD=
EXTT0=
EXTT1=
EXTT2=
EXTT3=
EXTT4=
EXTT5=
EXTT6=
EXTT7=
EXTT8=
EXTT9=
EXTT10=
EXTT11=
PLAYORDER=
